Coordinates
version=1
nRows=17
nColumns=36
inDegrees=yes

Units are S.I. units (second, meters, Newtons, ...)
If the header above contains a line with 'inDegrees', this indicates whether rotational values are in degrees (yes) or radians (no).

endheader
time	pelvis_tilt	pelvis_list	pelvis_rotation	pelvis_tx	pelvis_ty	pelvis_tz	hip_flexion_r	hip_adduction_r	hip_rotation_r	knee_angle_r	knee_angle_r_beta	ankle_angle_r	subtalar_angle_r	mtp_angle_r	hip_flexion_l	hip_adduction_l	hip_rotation_l	knee_angle_l	knee_angle_l_beta	ankle_angle_l	subtalar_angle_l	mtp_angle_l	lumbar_extension	lumbar_bending	lumbar_rotation	arm_flex_r	arm_add_r	arm_rot_r	elbow_flex_r	pro_sup_r	arm_flex_l	arm_add_l	arm_rot_l	elbow_flex_l	pro_sup_l
      1.53333330	     -0.26258495	      1.16995749	      2.12468981	     -0.11304410	      1.24979406	      0.02127810	     -3.00015692	     -1.71767079	     -2.77643923	      0.49114456	      0.00857209	     10.35452171	      1.14006924	     -7.49999975	     -1.84248894	     -0.25526921	     -6.41977466	      0.37023414	      0.00646180	      9.38140094	      1.14408729	     -7.49999975	     -6.00527167	      1.11655373	     -2.59608353	      5.76708075	     -6.01249747	     27.90462576	     28.08687163	     66.75501612	      5.60737855	     -6.14447430	     25.06612109	     31.21596377	     76.62855272
      1.55000000	     -0.30689895	      1.14370741	      2.14066881	     -0.11288789	      1.25939280	      0.02133624	     -2.95554956	     -1.70830285	     -2.81282427	      0.48655116	      0.00849192	     10.28206816	      1.15415550	     -7.49999975	     -1.78026252	     -0.28257112	     -6.47077023	      0.37005360	      0.00645865	      9.34394401	      1.13204595	     -7.49999975	     -6.08118841	      1.07483684	     -2.62037263	      5.71405663	     -6.04929653	     27.90700315	     28.04982505	     66.76563412	      5.58514072	     -6.18170508	     25.07274631	     31.19458135	     76.65285968
      1.56666670	     -0.44895472	      1.10499177	      2.09458530	     -0.11340213	      1.26263471	      0.02122241	     -2.77504593	     -1.69764858	     -2.95050999	      0.45566578	      0.00795287	      9.72471654	      1.23905110	     -7.49999976	     -1.63637203	     -0.28890287	     -6.66024681	      0.36134277	      0.00630662	      8.84426552	      0.91008778	     -7.49999976	     -5.92413989	      1.07323205	     -2.61578965	      5.71116491	     -5.98981099	     27.87510857	     27.64830346	     66.91937221	      5.59153766	     -6.24158194	     25.16589980	     31.00999120	     76.99708423
      1.58333330	     -0.62161998	      1.06866728	      2.10414586	     -0.11267906	      1.25944008	      0.02143967	     -2.56113820	     -1.67805562	     -3.02416841	      0.42996271	      0.00750427	      9.37424541	      1.37579280	     -7.49999982	     -1.44908173	     -0.31250774	     -6.80115311	      0.35864032	      0.00625945	      8.57607572	      0.81814386	     -7.49999982	     -5.81146982	      1.02021481	     -2.62008873	      5.56226576	     -5.87416049	     26.72246774	     27.39753324	     70.94682245	      5.42050877	     -6.16804046	     23.43428217	     31.00875198	     85.22284833
      1.60000000	     -0.63660915	      1.04613726	      2.09706187	     -0.11171290	      1.24911006	      0.02218850	     -2.50075591	     -1.65002434	     -3.02669616	      0.44420116	      0.00775277	      9.39924779	      1.37442637	     -7.49999982	     -1.39885555	     -0.30745054	     -6.80436760	      0.36463751	      0.00636413	      8.62656576	      0.80456528	     -7.49999982	     -5.89347641	      0.98332499	     -2.66017637	      5.49470832	     -5.90407167	     26.72199922	     27.36927607	     70.94652731	      5.44573081	     -6.21370294	     23.42519752	     31.01069966	     85.22173443
      1.61666670	     -0.82695158	      1.08836935	      2.24955490	     -0.11342868	      1.24938259	      0.02166482	     -2.28947226	     -1.69893602	     -3.13383562	      0.43773589	      0.00763993	      9.54735288	      1.45801182	     -7.49999982	     -1.12293048	     -0.25825461	     -6.53175528	      0.35017290	      0.00611167	      8.90073793	      0.81608803	     -7.49999982	     -5.73366722	      0.80354057	     -2.76560124	      5.37139830	     -5.87270016	     26.44443769	     27.34789895	     70.25092681	      5.33170471	     -6.51889807	     23.57676280	     31.58851644	     83.92708981
      1.63333330	     -1.12799014	      1.08396262	      2.41620389	     -0.11672462	      1.25030207	      0.02107728	     -1.90121049	     -1.71571238	     -3.14581730	      0.45659507	      0.00796909	      9.60254913	      1.26769784	     -7.49999983	     -0.66210762	     -0.22257932	     -6.08194056	      0.34816661	      0.00607665	      9.02957300	      0.57508978	     -7.49999983	     -5.51424275	      0.68828246	     -2.84371865	      5.32568817	     -5.85945256	     26.17076338	     27.22241414	     69.58087696	      5.44424259	     -6.58248116	     23.45495022	     31.47996922	     82.54721423
      1.65000000	     -1.22674580	      1.13260669	      2.48988300	     -0.11780638	      1.24885762	      0.02044531	     -1.71956953	     -1.78617613	     -3.16008877	      0.47337118	      0.00826189	      9.67434954	      1.23590724	     -7.49999984	     -0.44759134	     -0.14504526	     -6.28437596	      0.34812792	      0.00607598	      9.48795147	      1.18265557	     -7.49999984	     -5.67356921	      0.51535320	     -2.76333456	      5.28335879	     -6.01391651	     26.36406340	     27.38775132	     69.39084610	      5.74139788	     -6.98396365	     24.53228060	     31.88431224	     82.23691897
      1.66666670	     -2.28246684	      1.04430059	      2.65958792	     -0.11671185	      1.25053663	      0.02047669	     -0.52612062	     -1.75848672	     -2.93431610	      0.58331835	      0.01018083	      9.85819544	      0.94108280	     -7.49999984	      0.76565311	     -0.18287622	     -5.97777123	      0.35381960	      0.00617532	      9.80012503	      1.09800482	     -7.49999984	     -4.50063889	      0.46746600	     -2.74220716	      4.44706716	     -6.50572212	     26.22653704	     28.77066202	     68.92944294	      5.08889454	     -7.26724711	     24.43235808	     33.17248536	     81.10274297
      1.68333330	     -1.51695581	      1.09616474	      2.89984726	     -0.11832059	      1.24771949	      0.01998326	     -1.33347246	     -1.79182809	     -3.39103815	      0.51222303	      0.00893998	      9.64010213	      1.08302918	     -7.49999985	      0.08239999	     -0.14412573	     -5.88493371	      0.35205039	      0.00614444	      9.67890174	      1.33323477	     -7.49999985	     -5.91130381	      0.36289203	     -2.86971210	      5.13065776	     -6.14289666	     25.79780949	     27.41888224	     69.00132775	      5.90900830	     -7.24586677	     24.19514412	     32.44840652	     81.49906377
      1.70000000	     -1.64510460	      1.07242403	      3.06509236	     -0.11626969	      1.25082714	      0.01859600	     -1.18006805	     -1.80298841	     -3.55888852	      0.52513513	      0.00916534	      9.64298452	      1.07093619	     -7.49999985	      0.31363468	     -0.14701325	     -5.71902185	      0.34829888	      0.00607896	      9.73232042	      1.59709998	     -7.49999985	     -5.96371751	      0.29065206	     -2.88887639	      4.94080005	     -6.20342950	     25.68396520	     27.24466860	     69.04093658	      5.95150871	     -7.31313111	     24.13883253	     32.53566059	     81.64112898
      1.71666670	     -1.87454682	      1.00395331	      3.13108583	     -0.11782339	      1.25387107	      0.01793803	     -0.88732566	     -1.79591141	     -3.76298967	      0.54666513	      0.00954111	      9.73866801	      1.43733613	     -7.49999985	      0.61647587	     -0.19211450	     -6.10980566	      0.34764140	      0.00606749	     10.06386726	      2.50383687	     -7.49999985	     -5.92600426	      0.27737645	     -2.90331894	      4.74216453	     -6.19922746	     25.10026829	     26.93823024	     68.27700980	      5.89991141	     -7.37496861	     23.93036721	     32.54689697	     80.07192013
      1.73333330	     -2.07225222	      0.96362838	      3.15449513	     -0.12879904	      1.25514227	      0.01418018	     -0.46874680	     -1.87246725	     -3.69428389	      0.56885684	      0.00992842	      9.66031603	      1.24526229	     -7.49999985	      1.01443105	     -0.11982352	     -6.06270673	      0.33185896	      0.00579203	     10.08163065	      2.34678101	     -7.49999985	     -6.24011547	      0.31542305	     -2.89194696	      4.81828877	     -6.45573033	     25.02112112	     27.10010774	     68.23535748	      6.06501678	     -7.42543708	     23.91865765	     32.78213117	     79.98679119
      1.75000000	     -2.38673621	      0.94723048	      3.39616591	     -0.11903393	      1.25828802	      0.01685476	     -0.01623128	     -1.92322016	     -3.89387740	      0.53724804	      0.00937675	      9.34948862	      1.20044767	     -7.49999986	      1.43218897	     -0.10130748	     -5.54226226	      0.32965290	      0.00575353	      9.58937574	      1.98766484	     -7.49999986	     -6.11530599	      0.22991006	     -2.88090319	      4.54624500	     -6.19480592	     23.28949610	     26.32908810	     71.19927724	      6.13565534	     -7.43132020	     23.26645660	     32.31023003	     86.00800988
      1.76666670	     -2.51365552	      0.83821403	      3.49144928	     -0.12087925	      1.25819372	      0.01587730	      0.21627263	     -1.88475360	     -4.00685025	      0.52641206	      0.00918762	      9.23282530	      1.26407901	     -7.49999986	      1.60408996	     -0.18241235	     -5.77449723	      0.31621146	      0.00551893	      9.65492237	      2.46273064	     -7.49999986	     -6.29434131	      0.29675505	     -2.92034819	      4.48953976	     -6.29470529	     23.25552952	     26.12036729	     69.85542367	      6.16062966	     -7.55744731	     23.72078786	     32.30482171	     83.06929129
      1.78333330	     -2.62692722	      0.76187881	      3.62408705	     -0.12952589	      1.25981237	      0.01225941	      0.44858461	     -1.90351028	     -4.14559830	      0.52231888	      0.00911618	      8.97925878	      1.09022191	     -7.49999986	      1.88386522	     -0.16672257	     -5.63546449	      0.30781448	      0.00537238	      9.65180166	      2.54469923	     -7.49999986	     -6.65400586	      0.36082547	     -3.07532575	      4.61081321	     -6.42959399	     22.94398212	     25.93433914	     69.41134146	      6.35800310	     -7.55639453	     23.62167188	     32.08423982	     82.26496712
      1.80000000	     -2.81916300	      0.74787674	      3.73830068	     -0.11938440	      1.25901032	      0.01319625	      0.71187971	     -1.94427711	     -3.75240607	      0.50272790	      0.00877426	      8.73351795	      0.71598456	     -7.49999987	      2.01491691	     -0.16218619	     -5.73225258	      0.29222380	      0.00510027	      9.44291859	      2.68299032	     -7.49999987	     -6.65111807	      0.24923566	     -3.03258368	      4.18062422	     -6.58251654	     22.83424662	     26.11611881	     69.32585042	      6.13496096	     -7.72824806	     23.59565457	     32.26107584	     82.05759015
